<svg width="1366" height="317" viewBox="0 0 1366 317" fill="none" xmlns="http://www.w3.org/2000/svg">
<path fill-rule="evenodd" clip-rule="evenodd" d="M0 287L33 260C65 232 130 178 195 171C260 164 325 205 390 219C455 232 520 219 585 178C650 137 716 68 781 75C846 82 911 164 976 226C1041 287 1106 328 1171 314C1236 301 1301 232 1333 198L1366 164V0H1333C1301 0 1236 0 1171 0C1106 0 1041 0 976 0C911 0 846 0 781 0C716 0 650 0 585 0C520 0 455 0 390 0C325 0 260 0 195 0C130 0 65 0 33 0H0V287Z" fill="#5498C9"/>
</svg>
